<svg width="66" height="53" viewBox="0 0 66 53" fill="none" xmlns="http://www.w3.org/2000/svg">
<circle cx="26.5" cy="26.5" r="26.4" stroke="#F1063E" stroke-width="0.2"/>
<path d="M38.808 17.208V12.696H20.664V17.496H32.216L20.216 30.488V35H38.936V30.2H26.808L38.808 17.208ZM43.9458 15.608C41.7378 17.752 40.6497 20.504 40.6497 23.832C40.6497 27.16 41.7378 29.912 43.9458 32.056C46.1538 34.232 48.9378 35.32 52.3618 35.32C55.7858 35.32 58.5698 34.232 60.7778 32.056C62.9858 29.912 64.0738 27.16 64.0738 23.832C64.0738 20.504 62.9858 17.752 60.7778 15.608C58.5698 13.464 55.7858 12.376 52.3618 12.376C48.9378 12.376 46.1538 13.464 43.9458 15.608ZM56.8098 19.16C57.9618 20.376 58.5378 21.912 58.5378 23.8C58.5378 25.688 57.9618 27.256 56.8098 28.472C55.6258 29.72 54.1538 30.328 52.3618 30.328C50.5698 30.328 49.0978 29.72 47.9458 28.472C46.7618 27.256 46.1858 25.688 46.1858 23.8C46.1858 21.912 46.7618 20.376 47.9458 19.16C49.0978 17.976 50.5698 17.368 52.3618 17.368C54.1538 17.368 55.6258 17.976 56.8098 19.16Z" fill="url(#paint0_radial)"/>
<defs>
<radialGradient id="paint0_radial" cx="0" cy="0" r="1" gradientUnits="userSpaceOnUse" gradientTransform="translate(19 1.68182) rotate(62.0649) scale(50.1632 59.9449)">
<stop stop-color="#E71919"/>
<stop offset="0.5625" stop-color="#C82A2A" stop-opacity="0.86"/>
<stop offset="0.760417" stop-color="#F76464" stop-opacity="0.81"/>
<stop offset="1" stop-color="#DD3434" stop-opacity="0.9"/>
</radialGradient>
</defs>
</svg>
